<svg width="48" height="48" viewBox="0 0 48 48" fill="none" xmlns="http://www.w3.org/2000/svg">
<path d="M39.36 14.8799V33.1199C39.36 34.0847 39.1392 35.0015 38.7504 35.8175C38.2128 36.9359 37.3488 37.8767 36.2784 38.4959C35.352 39.0479 34.272 39.3599 33.12 39.3599H14.88C14.1744 39.3599 13.4928 39.2399 12.8592 39.0239H12.8544C11.688 38.6255 10.6848 37.8959 9.95041 36.9407C9.12961 35.8847 8.64001 34.5599 8.64001 33.1199V14.8799C8.64001 14.5967 8.65922 14.3183 8.69762 14.0447C8.74562 13.6751 8.82721 13.3151 8.94241 12.9695C9.74401 10.4591 12.1008 8.63989 14.88 8.63989H33.12C33.3264 8.63989 33.528 8.64949 33.7248 8.66869H33.7392C34.1088 8.70709 34.464 8.77429 34.8096 8.87509C37.0656 9.50869 38.808 11.3759 39.2448 13.7087C39.288 13.9247 39.3168 14.1455 39.336 14.3711C39.3552 14.5391 39.36 14.7071 39.36 14.8799Z" fill="#4E5FD8"/>
<path d="M39.2448 13.7087C38.808 11.3759 37.0656 9.50869 34.8096 8.87509C34.4544 8.79829 34.0992 8.73109 33.7392 8.66869H33.7248C33.6624 8.65765 33.5991 8.65045 33.5371 8.63989H22.128C17.2128 9.46549 12.6576 11.3471 8.69762 14.0447C8.65922 14.3183 8.64001 14.5967 8.64001 14.8799V33.1199C8.64001 34.5599 9.12961 35.8847 9.95041 36.9407C10.6848 37.8959 11.688 38.6255 12.8544 39.0239H12.8592C13.4928 39.2399 14.1744 39.3599 14.88 39.3599H33.12C34.272 39.3599 35.352 39.0479 36.2784 38.4959C37.3488 37.8767 38.2128 36.9359 38.7504 35.8175C39.1392 35.0015 39.36 34.0847 39.36 33.1199V14.8799C39.36 14.7071 39.3552 14.5391 39.336 14.3711C39.3168 14.1455 39.288 13.9247 39.2448 13.7087Z" fill="#7550CC"/>
<path d="M39.36 14.88V33.12C39.36 34.0848 39.1392 35.0016 38.7504 35.8176C38.2128 36.936 37.3488 37.8768 36.2784 38.496C35.352 39.048 34.272 39.36 33.12 39.36H14.88C14.1744 39.36 13.4928 39.24 12.8592 39.024H12.8544C11.688 38.6256 10.6848 37.896 9.95041 36.9408C9.12961 35.8848 8.64001 34.56 8.64001 33.12V18.2544C13.896 14.04 20.5728 11.52 27.84 11.52C31.872 11.52 35.7216 12.2976 39.2448 13.7088C39.288 13.9248 39.3168 14.1456 39.336 14.3712C39.3552 14.5392 39.36 14.7072 39.36 14.88Z" fill="#9C32C8"/>
<path d="M39.36 17.4191V33.1199C39.36 34.0847 39.1392 35.0015 38.7504 35.8175C38.2128 36.9359 37.3488 37.8767 36.2784 38.4959C35.352 39.0479 34.272 39.3599 33.12 39.3599H14.88C14.1744 39.3599 13.4928 39.2399 12.8592 39.0239H12.8544C11.688 38.6255 10.6848 37.8959 9.95041 36.9407C9.12961 35.8847 8.64001 34.5599 8.64001 33.1199V22.7567C13.5744 17.8847 20.3568 14.8799 27.84 14.8799C31.9536 14.8799 35.8608 15.7871 39.36 17.4191Z" fill="#D515A3"/>
<path d="M39.36 21.1872V33.12C39.36 34.0848 39.1392 35.0016 38.7504 35.8176C38.2128 36.936 37.3488 37.8768 36.2784 38.496C35.352 39.048 34.272 39.36 33.12 39.36H14.88C14.1744 39.36 13.4928 39.24 12.8592 39.024H12.8544C11.688 38.6256 10.6848 37.896 9.95041 36.9408C9.12961 35.8848 8.64001 34.56 8.64001 33.12V27.8448C13.0176 22.0128 19.9872 18.24 27.84 18.24C32.0112 18.24 35.9376 19.3056 39.36 21.1872Z" fill="#EC007A"/>
<path d="M39.36 31.7137V33.1201C39.36 34.5601 38.8704 35.8849 38.0496 36.9409C37.3152 37.8961 36.312 38.6257 35.1456 39.0241H35.1408C34.5072 39.2401 33.8256 39.3601 33.12 39.3601H14.88C13.728 39.3601 12.648 39.0481 11.7216 38.4961C10.6512 37.8769 9.78721 36.9361 9.24961 35.8177C8.86081 35.0017 8.64001 34.0849 8.64001 33.1201V26.1793C12.1824 23.3137 16.6896 21.6001 21.6 21.6001C29.1552 21.6001 35.76 25.6561 39.36 31.7137Z" fill="#FF492E"/>
<path d="M38.0496 36.9408C37.3152 37.896 36.312 38.6256 35.1456 39.024H35.1408C34.5072 39.24 33.8256 39.36 33.12 39.36H14.88C13.728 39.36 12.648 39.048 11.7216 38.496C10.6512 37.8768 9.78721 36.936 9.24961 35.8176C8.86081 35.0016 8.64001 34.0848 8.64001 33.12V30.8112C11.808 27.2256 16.44 24.96 21.6 24.96C29.2944 24.96 35.8128 29.9904 38.0496 36.9408Z" fill="#FF7A02"/>
<path d="M35.1408 39.0241C34.5072 39.2401 33.8256 39.3601 33.12 39.3601H14.88C13.728 39.3601 12.648 39.0481 11.7216 38.4961C10.6512 37.8769 9.78717 36.9361 9.24957 35.8177C11.568 31.3633 16.2288 28.3201 21.6 28.3201C28.1808 28.3201 33.696 32.8849 35.1408 39.0241Z" fill="#FFA823"/>
<path d="M31.7616 39.3599H14.88C13.728 39.3599 12.648 39.0479 11.7216 38.4959C13.2336 34.5119 17.088 31.6799 21.6 31.6799C26.4336 31.6799 30.5088 34.9295 31.7616 39.3599Z" fill="#FFCA58"/>
<path d="M28.2 39.36H15C16.1136 36.816 18.648 35.04 21.6 35.04C24.552 35.04 27.0864 36.816 28.2 39.36Z" fill="#FFDB73"/>
<path d="M28.8 12.72H19.2C15.6269 12.72 12.72 15.6269 12.72 19.2V28.8C12.72 32.3731 15.6269 35.28 19.2 35.28H28.8C32.3731 35.28 35.28 32.3731 35.28 28.8V19.2C35.28 15.6269 32.3731 12.72 28.8 12.72ZM33.36 28.8C33.36 31.3142 31.3142 33.36 28.8 33.36H19.2C16.6857 33.36 14.64 31.3142 14.64 28.8V19.2C14.64 16.6857 16.6857 14.64 19.2 14.64H28.8C31.3142 14.64 33.36 16.6857 33.36 19.2V28.8ZM24 29.52C20.9563 29.52 18.48 27.0437 18.48 24C18.48 20.9563 20.9563 18.48 24 18.48C27.0437 18.48 29.52 20.9563 29.52 24C29.52 27.0437 27.0437 29.52 24 29.52ZM24 20.4C22.0147 20.4 20.4 22.0152 20.4 24C20.4 25.9848 22.0147 27.6 24 27.6C25.9853 27.6 27.6 25.9848 27.6 24C27.6 22.0152 25.9853 20.4 24 20.4ZM31.44 18C31.44 18.7953 30.7953 19.44 30 19.44C29.2046 19.44 28.56 18.7953 28.56 18C28.56 17.2046 29.2046 16.56 30 16.56C30.7953 16.56 31.44 17.2046 31.44 18Z" fill="white"/>
<path d="M28.8 35.5199H19.2C15.4944 35.5199 12.48 32.5055 12.48 28.7999V19.1999C12.48 15.4943 15.4944 12.4799 19.2 12.4799H28.8C32.5056 12.4799 35.52 15.4943 35.52 19.1999V28.7999C35.52 32.5055 32.5056 35.5199 28.8 35.5199ZM19.2 12.9599C15.7593 12.9599 12.96 15.7593 12.96 19.1999V28.7999C12.96 32.2406 15.7593 35.0399 19.2 35.0399H28.8C32.2406 35.0399 35.04 32.2406 35.04 28.7999V19.1999C35.04 15.7593 32.2406 12.9599 28.8 12.9599H19.2ZM28.8 33.5999H19.2C16.5533 33.5999 14.4 31.4466 14.4 28.7999V19.1999C14.4 16.5532 16.5533 14.3999 19.2 14.3999H28.8C31.4467 14.3999 33.6 16.5532 33.6 19.1999V28.7999C33.6 31.4466 31.4467 33.5999 28.8 33.5999ZM19.2 14.8799C16.8177 14.8799 14.88 16.8177 14.88 19.1999V28.7999C14.88 31.1822 16.8177 33.1199 19.2 33.1199H28.8C31.1822 33.1199 33.12 31.1822 33.12 28.7999V19.1999C33.12 16.8177 31.1822 14.8799 28.8 14.8799H19.2ZM24 29.7599C20.8238 29.7599 18.24 27.1761 18.24 23.9999C18.24 20.8238 20.8238 18.2399 24 18.2399C27.1761 18.2399 29.76 20.8238 29.76 23.9999C29.76 27.1761 27.1761 29.7599 24 29.7599ZM24 18.7199C21.0888 18.7199 18.72 21.0887 18.72 23.9999C18.72 26.9111 21.0888 29.2799 24 29.2799C26.9112 29.2799 29.28 26.9111 29.28 23.9999C29.28 21.0887 26.9112 18.7199 24 18.7199ZM24 27.8399C21.8827 27.8399 20.16 26.1172 20.16 23.9999C20.16 21.8826 21.8827 20.1599 24 20.1599C26.1173 20.1599 27.84 21.8826 27.84 23.9999C27.84 26.1172 26.1173 27.8399 24 27.8399ZM24 20.6399C22.1477 20.6399 20.64 22.1476 20.64 23.9999C20.64 25.8522 22.1477 27.3599 24 27.3599C25.8523 27.3599 27.36 25.8522 27.36 23.9999C27.36 22.1476 25.8523 20.6399 24 20.6399ZM30 19.6799C29.0736 19.6799 28.32 18.9263 28.32 17.9999C28.32 17.0735 29.0736 16.3199 30 16.3199C30.9264 16.3199 31.68 17.0735 31.68 17.9999C31.68 18.9263 30.9264 19.6799 30 19.6799ZM30 16.7999C29.3381 16.7999 28.8 17.338 28.8 17.9999C28.8 18.6618 29.3381 19.1999 30 19.1999C30.6619 19.1999 31.2 18.6618 31.2 17.9999C31.2 17.338 30.6619 16.7999 30 16.7999ZM33.12 39.8399H14.88C11.1744 39.8399 8.15997 36.8255 8.15997 33.1199V14.8799C8.15997 11.1743 11.1744 8.15991 14.88 8.15991H33.12C36.8256 8.15991 39.84 11.1743 39.84 14.8799V33.1199C39.84 36.8255 36.8256 39.8399 33.12 39.8399ZM14.88 9.11991C11.7038 9.11991 9.11997 11.7038 9.11997 14.8799V33.1199C9.11997 36.2961 11.7038 38.8799 14.88 38.8799H33.12C36.2961 38.8799 38.88 36.2961 38.88 33.1199V14.8799C38.88 11.7038 36.2961 9.11991 33.12 9.11991H14.88Z" fill="#1F212B"/>
</svg>
